<svg xmlns="http://www.w3.org/2000/svg" xmlns:xlink="http://www.w3.org/1999/xlink" width="500" zoomAndPan="magnify" viewBox="0 0 375 374.999991" height="500" preserveAspectRatio="xMidYMid meet" version="1.0"><defs><clipPath id="a710d286f6"><path d="M 99 0 L 373.8125 0 L 373.8125 275 L 99 275 Z M 99 0 " clip-rule="nonzero"/></clipPath></defs><path fill="#ffe500" d="M 273.496094 311.71875 L 236.460938 311.71875 L 236.460938 337.945312 L 35.867188 337.945312 L 35.867188 137.351562 L 62.09375 137.351562 L 62.09375 100.316406 L -1.167969 100.316406 L -1.167969 374.980469 L 273.496094 374.980469 Z M 273.496094 311.71875 " fill-opacity="1" fill-rule="nonzero"/><g clip-path="url(#a710d286f6)"><path fill="#1400ff" d="M 99.128906 137.351562 L 99.128906 274.683594 L 373.792969 274.683594 L 373.792969 0.0195312 L 99.128906 0.0195312 Z M 136.136719 237.648438 L 136.136719 137.351562 L 236.460938 137.351562 L 236.460938 237.648438 Z M 136.136719 37.054688 L 336.757812 37.054688 L 336.757812 237.648438 L 273.496094 237.648438 L 273.496094 100.316406 L 136.164062 100.316406 Z M 136.136719 37.054688 " fill-opacity="1" fill-rule="nonzero"/></g><path fill="#ffe500" d="M 207.578125 166.234375 L 207.578125 208.765625 L 165.050781 208.765625 L 165.050781 166.234375 Z M 207.578125 166.234375 " fill-opacity="1" fill-rule="nonzero"/></svg>